<svg width="150" height="150" viewBox="0 0 150 150" fill="none" xmlns="http://www.w3.org/2000/svg">
<path d="M27.6658 127.505L17.1377 9.375H132.863L122.321 127.486L74.9299 140.625L27.6658 127.505Z" fill="#1572B6"/>
<path d="M75 130.585L113.297 119.967L122.306 19.0361H75V130.585Z" fill="#33A9DC"/>
<path d="M75 61.8328H94.1719L95.4937 46.9969H75V32.5078H111.328L110.981 36.3937L107.423 76.3219H75V61.8328Z" fill="white"/>
<path d="M75.0891 99.4593L75.0234 99.478L58.8891 95.1187L57.8578 83.564H43.3125L45.3422 106.312L75.0187 114.553L75.0891 114.534V99.4593Z" fill="#EBEBEB"/>
<path d="M92.9392 75.708L91.1954 95.1096L75.0376 99.4689V114.544L104.738 106.313L104.958 103.866L107.475 75.708H92.9392Z" fill="white"/>
<path d="M75.0517 32.5078V46.9969H40.0548L39.7642 43.7391L39.1032 36.3937L38.7563 32.5078H75.0517ZM75.0001 61.8328V76.3219H59.0673L58.7767 73.0641L58.1204 65.7187L57.7735 61.8328H75.0001Z" fill="#EBEBEB"/>
</svg>
