<svg width="350" height="293" viewBox="0 0 350 293" fill="none" xmlns="http://www.w3.org/2000/svg">
<g opacity="0.4">
<mask id="path-1-outside-1_1_5013" maskUnits="userSpaceOnUse" x="-2.17372" y="-1.42195" width="354.172" height="297.53" fill="black">
<rect fill="white" x="-2.17372" y="-1.42195" width="354.172" height="297.53"/>
<path d="M226.057 10.4373L251.266 271.067L187.779 277.208L177.401 169.911L78.6442 179.464L89.0223 286.76L25.5356 292.901L0.326475 32.2708L63.8132 26.1302L73.6885 128.229L172.446 118.677L162.57 16.578L226.057 10.4373ZM324.237 0.941004L349.446 261.571L285.959 267.711L260.75 7.08168L324.237 0.941004Z"/>
</mask>
<path d="M226.057 10.4373L228.175 10.2324C228.062 9.06242 227.022 8.20569 225.852 8.31886L226.057 10.4373ZM251.266 271.067L251.471 273.185C252.641 273.072 253.498 272.032 253.385 270.862L251.266 271.067ZM187.779 277.208L185.661 277.413C185.774 278.583 186.814 279.439 187.984 279.326L187.779 277.208ZM177.401 169.911L179.52 169.707C179.407 168.537 178.366 167.68 177.196 167.793L177.401 169.911ZM78.6442 179.464L78.4393 177.345C77.2693 177.458 76.4125 178.499 76.5257 179.668L78.6442 179.464ZM89.0223 286.76L89.2272 288.878C90.3972 288.765 91.2539 287.725 91.1407 286.555L89.0223 286.76ZM25.5356 292.901L23.4171 293.105C23.5303 294.275 24.5705 295.132 25.7405 295.019L25.5356 292.901ZM0.326475 32.2708L0.121569 30.1524C-1.04843 30.2655 -1.90516 31.3057 -1.79199 32.4757L0.326475 32.2708ZM63.8132 26.1302L65.9317 25.9253C65.8185 24.7553 64.7783 23.8985 63.6083 24.0117L63.8132 26.1302ZM73.6885 128.229L71.5701 128.434C71.6832 129.604 72.7235 130.46 73.8935 130.347L73.6885 128.229ZM172.446 118.677L172.651 120.795C173.821 120.682 174.677 119.642 174.564 118.472L172.446 118.677ZM162.57 16.578L162.365 14.4595C161.195 14.5727 160.339 15.6129 160.452 16.7829L162.57 16.578ZM223.939 10.6422L249.148 271.272L253.385 270.862L228.175 10.2324L223.939 10.6422ZM251.061 268.949L187.574 275.089L187.984 279.326L251.471 273.185L251.061 268.949ZM189.898 277.003L179.52 169.707L175.283 170.116L185.661 277.413L189.898 277.003ZM177.196 167.793L78.4393 177.345L78.8491 181.582L177.606 172.03L177.196 167.793ZM76.5257 179.668L86.9038 286.965L91.1407 286.555L80.7626 179.259L76.5257 179.668ZM88.8174 284.641L25.3306 290.782L25.7405 295.019L89.2272 288.878L88.8174 284.641ZM27.654 292.696L2.44494 32.0659L-1.79199 32.4757L23.4171 293.105L27.654 292.696ZM0.531382 34.3893L64.0181 28.2486L63.6083 24.0117L0.121569 30.1524L0.531382 34.3893ZM61.6947 26.3351L71.5701 128.434L75.807 128.024L65.9317 25.9253L61.6947 26.3351ZM73.8935 130.347L172.651 120.795L172.241 116.558L73.4836 126.11L73.8935 130.347ZM174.564 118.472L164.689 16.3731L160.452 16.7829L170.327 118.881L174.564 118.472ZM162.775 18.6965L226.262 12.5558L225.852 8.31886L162.365 14.4595L162.775 18.6965ZM324.237 0.941004L326.355 0.736098C326.242 -0.433903 325.202 -1.29063 324.032 -1.17747L324.237 0.941004ZM349.446 261.571L349.651 263.689C350.821 263.576 351.678 262.536 351.564 261.366L349.446 261.571ZM285.959 267.711L283.841 267.916C283.954 269.086 284.994 269.943 286.164 269.83L285.959 267.711ZM260.75 7.08168L260.545 4.96321C259.375 5.07637 258.519 6.11658 258.632 7.28658L260.75 7.08168ZM322.118 1.14591L347.328 261.776L351.564 261.366L326.355 0.736098L322.118 1.14591ZM349.241 259.452L285.754 265.593L286.164 269.83L349.651 263.689L349.241 259.452ZM288.078 267.506L262.869 6.87677L258.632 7.28658L283.841 267.916L288.078 267.506ZM260.955 9.20015L324.442 3.05947L324.032 -1.17747L260.545 4.96321L260.955 9.20015Z" fill="#7A858D" mask="url(#path-1-outside-1_1_5013)"/>
</g>
</svg>
