<svg width="150" height="155" viewBox="0 0 150 155" fill="none" xmlns="http://www.w3.org/2000/svg">
<path d="M149.916 34.9337C149.971 35.1393 150 35.3514 150 35.5647V68.71C150 69.576 149.537 70.3758 148.785 70.8065L120.967 86.8243V118.57C120.967 118.995 120.855 119.413 120.643 119.781C120.431 120.149 120.126 120.454 119.759 120.667L61.6875 154.097C61.5545 154.172 61.4098 154.22 61.2645 154.272C61.21 154.29 61.159 154.323 61.1016 154.338C60.6956 154.445 60.2689 154.445 59.8629 154.338C59.7961 154.321 59.7357 154.284 59.6725 154.26C59.5395 154.211 59.4006 154.169 59.274 154.097L1.21465 120.667C0.845708 120.455 0.539145 120.15 0.325887 119.782C0.112629 119.414 0.000219939 118.996 0 118.57L0 19.1344C0 18.9165 0.0304687 18.7049 0.084375 18.4999C0.102539 18.4301 0.144727 18.3669 0.169336 18.2971C0.214453 18.1706 0.257227 18.0405 0.323437 17.9227C0.368555 17.8442 0.434766 17.7809 0.489258 17.7083C0.558984 17.6116 0.622266 17.512 0.703711 17.427C0.773437 17.3579 0.864258 17.3063 0.942773 17.246C1.03066 17.1733 1.10859 17.0948 1.2082 17.0374H1.21113L30.242 0.322912C30.6096 0.111348 31.0263 0 31.4505 0C31.8746 0 32.2914 0.111348 32.659 0.322912L61.6898 17.0374H61.6957C61.7924 17.0983 61.8744 17.1733 61.9617 17.243C62.0402 17.3034 62.1281 17.3579 62.1973 17.4247C62.2822 17.512 62.3426 17.6122 62.4147 17.7083C62.4662 17.7809 62.5359 17.8442 62.5781 17.9227C62.6473 18.0434 62.6865 18.1706 62.7352 18.2977C62.7592 18.3669 62.8014 18.4301 62.8195 18.5028C62.8752 18.7085 62.9039 18.9212 62.9045 19.1344V81.2403L87.0955 67.3108V35.5618C87.0955 35.3508 87.126 35.1358 87.1805 34.9337C87.2016 34.861 87.2408 34.7977 87.2648 34.7286C87.3135 34.6014 87.3557 34.4708 87.4219 34.3536C87.467 34.2751 87.5332 34.2118 87.5854 34.1391C87.6574 34.0424 87.7178 33.9428 87.8021 33.8579C87.8725 33.7887 87.9598 33.7372 88.0383 33.6768C88.1291 33.6042 88.2076 33.5256 88.3043 33.4682H88.3072L117.341 16.7538C117.709 16.5419 118.125 16.4304 118.55 16.4304C118.974 16.4304 119.39 16.5419 119.758 16.7538L148.789 33.4682C148.891 33.5286 148.97 33.6042 149.061 33.6733C149.136 33.7342 149.224 33.7887 149.293 33.8549C149.378 33.9428 149.438 34.0424 149.51 34.1391C149.565 34.2118 149.631 34.2751 149.674 34.3536C149.743 34.4708 149.783 34.6014 149.831 34.7286C149.858 34.7977 149.897 34.861 149.916 34.9337ZM145.161 67.3114V39.7489L135.001 45.5971L120.966 53.6784V81.2409L145.164 67.3114H145.161ZM116.13 117.172V89.5899L102.324 97.4749L62.9016 119.975V147.815L116.13 117.172ZM4.83926 23.318V117.172L58.0617 147.813V119.978L30.2578 104.242L30.249 104.236L30.2373 104.23C30.1436 104.176 30.0645 104.097 29.9771 104.031C29.901 103.97 29.8137 103.922 29.7475 103.855L29.7416 103.846C29.6631 103.771 29.6086 103.677 29.5424 103.593C29.4814 103.511 29.4094 103.441 29.3607 103.357L29.3578 103.348C29.3033 103.257 29.2699 103.149 29.2307 103.046C29.1914 102.955 29.1404 102.87 29.1158 102.774V102.771C29.0859 102.656 29.0801 102.535 29.0678 102.417C29.0561 102.327 29.0314 102.236 29.0314 102.145V37.2481L14.9988 29.1633L4.83926 23.3215V23.318ZM31.4537 5.2108L7.26504 19.1344L31.4479 33.0575L55.633 19.1309L31.4479 5.2108H31.4537ZM44.0326 92.1042L58.0646 84.0264V23.318L47.9063 29.1669L33.8701 37.2475V97.9553L44.0326 92.1042ZM118.549 21.6417L94.3641 35.5647L118.549 49.4883L142.731 35.5618L118.549 21.6417ZM116.129 53.6784L102.094 45.5971L91.9354 39.7489V67.3114L105.967 75.3897L116.13 81.2409L116.129 53.6784ZM60.4787 115.791L95.9531 95.5389L113.686 85.4186L89.5184 71.5044L61.6928 87.5239L36.3322 102.124L60.4787 115.791Z" fill="#FF2D20"/>
</svg>
