<svg width="74" height="69" viewBox="0 0 74 69" fill="none" xmlns="http://www.w3.org/2000/svg">
<g clip-path="url(#clip0_1_5049)">
<path d="M46.7335 9.41948C52.4321 10.362 57.0055 13.3199 60.6662 17.6796C63.2493 20.7361 65.1305 24.323 66.1767 28.1869C67.2229 32.0508 67.4088 36.0975 66.7211 40.0412C66.0334 43.9848 64.489 47.7293 62.1969 51.0101C59.9048 54.291 56.9209 57.0281 53.456 59.0283C52.4901 59.5938 51.0123 59.9611 52.2003 61.6093C62.0329 57.472 72.1552 43.4265 67.688 26.8773C65.6474 19.4498 60.8626 13.076 54.3026 9.04666C47.7426 5.01734 39.8977 3.63368 32.3566 5.17585C22.9683 7.10917 15.9368 12.3823 11.233 20.6424C6.52927 28.9025 6.21536 37.7715 8.44169 46.9644C8.27057 46.8003 8.11683 46.6189 7.9829 46.4231C7.84123 46.1328 7.71705 45.8342 7.61104 45.529C2.63682 32.7014 6.01735 18.5061 16.3521 8.82982C26.262 -0.454925 41.3585 -2.64441 54.1852 3.34403C66.925 9.29381 74.6568 22.3969 73.9469 36.8484C73.2708 50.6522 64.095 62.866 51.051 67.5397C49.2834 68.1681 48.5252 67.8152 47.7187 66.1913C44.4251 59.5552 41.0011 52.9867 37.6206 46.3748C37.1376 45.4565 36.6547 44.5478 35.8723 43.0833L29.8502 55.5242C31.9944 55.5242 33.6508 55.4565 35.2928 55.5532C36.0414 55.5967 37.1425 55.7272 37.4419 56.2154C39.9435 60.2898 42.0874 64.1618 44.4779 68.2991L44.6859 68.9801L43.5218 68.2991C41.054 66.0661 40.4274 65.4176 36.843 62.2135C34.2014 59.386 31.0092 60.5025 28.0295 60.7006C27.2327 60.7538 26.4063 63.4707 26.0398 64.4319C26.0398 65.7369 26.0398 65.1248 26.0398 66.8534L0 66.8534V64.4078C0.399211 64.4078 0.815657 64.4044 1.23631 64.4078C5.38471 65.3164 7.27782 63.0061 9.16609 59.6808C18.1825 43.7841 27.4451 28.0276 36.6257 12.2228C37.0652 11.4688 37.524 10.7293 38.3546 9.32281C42.4934 25.1615 46.4679 40.3912 50.5439 55.9882C58.1066 51.1549 62.6172 44.7315 63.2161 36.1717C64.095 23.5665 57.8314 14.9874 46.7335 9.41948ZM12.7978 64.4319C14.5508 64.4319 15.6666 64.4319 16.8979 64.4609C19.3608 64.8283 20.573 63.7456 21.6596 61.561C25.7983 53.209 30.1689 44.9683 34.4574 36.6889C34.8582 35.9204 35.3025 35.1809 35.9351 34.0596C37.3211 36.4279 38.5092 38.4579 39.6924 40.4878L40.0932 40.2993C38.514 35.6884 36.9396 31.0774 35.1624 25.8672L12.7978 64.4319Z" fill="white"/>
<path d="M46.7335 9.41948C52.4321 10.362 57.0055 13.3199 60.6662 17.6796C63.2493 20.7361 65.1305 24.323 66.1767 28.1869C67.2229 32.0508 67.4088 36.0975 66.7211 40.0412C66.0334 43.9848 64.489 47.7293 62.1969 51.0101C59.9048 54.291 56.9209 57.0281 53.456 59.0283C52.4901 59.5938 51.0123 59.9611 52.2003 61.6093C62.0329 57.472 72.1552 43.4265 67.688 26.8773C65.6474 19.4498 60.8626 13.076 54.3026 9.04666C47.7426 5.01734 39.8977 3.63368 32.3566 5.17585C22.9683 7.10917 15.9368 12.3823 11.233 20.6424C6.52927 28.9025 6.21536 37.7715 8.44169 46.9644C8.27057 46.8003 8.11683 46.6189 7.9829 46.4231C7.84123 46.1328 7.71705 45.8342 7.61104 45.529C2.63682 32.7014 6.01735 18.5061 16.3521 8.82982C26.262 -0.454925 41.3585 -2.64441 54.1852 3.34403C66.925 9.29381 74.6568 22.3969 73.9469 36.8484C73.2708 50.6522 64.095 62.866 51.051 67.5397C49.2834 68.1681 48.5252 67.8152 47.7187 66.1913C44.4251 59.5552 41.0011 52.9867 37.6206 46.3748C37.1376 45.4565 36.6547 44.5478 35.8723 43.0833L29.8502 55.5242C31.9944 55.5242 33.6508 55.4565 35.2928 55.5532C36.0414 55.5967 37.1425 55.7272 37.4419 56.2154C39.9435 60.2898 42.0874 64.1618 44.4779 68.2991L44.6859 68.9801L43.5218 68.2991C41.054 66.0661 40.4274 65.4176 36.843 62.2135C34.2014 59.386 31.0092 60.5025 28.0295 60.7006C27.2327 60.7538 26.4063 63.4707 26.0398 64.4319C26.0398 65.7369 26.0398 65.1248 26.0398 66.8534L0 66.8534V64.4078C0.399211 64.4078 0.815657 64.4044 1.23631 64.4078C5.38471 65.3164 7.27782 63.0061 9.16609 59.6808C18.1825 43.7841 27.4451 28.0276 36.6257 12.2228C37.0652 11.4688 37.524 10.7293 38.3546 9.32281C42.4934 25.1615 46.4679 40.3912 50.5439 55.9882C58.1066 51.1549 62.6172 44.7315 63.2161 36.1717C64.095 23.5665 57.8314 14.9874 46.7335 9.41948ZM12.7978 64.4319C14.5508 64.4319 15.6666 64.4319 16.8979 64.4609C19.3608 64.8283 20.573 63.7456 21.6596 61.561C25.7983 53.209 30.1689 44.9683 34.4574 36.6889C34.8582 35.9204 35.3025 35.1809 35.9351 34.0596C37.3211 36.4279 38.5092 38.4579 39.6924 40.4878L40.0932 40.2993C38.514 35.6884 36.9396 31.0774 35.1624 25.8672L12.7978 64.4319Z" fill="url(#paint0_linear_1_5049)"/>
</g>
<defs>
<linearGradient id="paint0_linear_1_5049" x1="12.395" y1="5.00291" x2="93.604" y2="131.4" gradientUnits="userSpaceOnUse">
<stop stop-color="#E8112B"/>
<stop offset="0.993112" stop-color="#FCC201"/>
</linearGradient>
<clipPath id="clip0_1_5049">
<rect width="74" height="69" fill="white"/>
</clipPath>
</defs>
</svg>
