<svg width="70" height="150" viewBox="0 0 70 150" fill="none" xmlns="http://www.w3.org/2000/svg">
<path d="M48.0217 16.7092C41.7299 9.24405 36.3117 1.6619 35.2049 0.0874453C35.1786 0.0598137 35.1469 0.0378146 35.1118 0.0227828C35.0768 0.00775104 35.039 0 35.0009 0C34.9627 0 34.925 0.00775104 34.8899 0.0227828C34.8548 0.0378146 34.8232 0.0598137 34.7969 0.0874453C33.69 1.66217 28.2718 9.24405 21.9798 16.7092C-32.0261 85.587 30.4859 132.07 30.4859 132.07L31.01 132.42C31.476 139.593 32.6414 149.916 32.6414 149.916H37.3021C37.3021 149.916 38.467 139.652 38.9332 132.42L39.4576 132.012C39.5159 132.07 102.028 85.5873 48.0217 16.7092ZM34.9716 131.02C34.9716 131.02 32.1752 128.629 31.4177 127.404V127.287L34.7969 52.2856C34.7969 52.0523 35.1466 52.0523 35.1466 52.2856L38.5255 127.287V127.404C37.7681 128.629 34.9716 131.02 34.9716 131.02" fill="#01EC64"/>
</svg>
