<svg width="140" height="158" viewBox="0 0 140 158" fill="none" xmlns="http://www.w3.org/2000/svg">
<path d="M70 157.754C67.8262 157.754 65.7973 157.174 63.9133 156.16L44.6376 144.71C41.7391 143.116 43.1884 142.537 44.0579 142.247C47.9708 140.942 48.6954 140.653 52.7532 138.333C53.1885 138.043 53.7682 138.188 54.2024 138.478L68.9855 147.319C69.5652 147.609 70.2898 147.609 70.7246 147.319L128.551 113.841C129.131 113.551 129.421 112.971 129.421 112.247V45.4346C129.421 44.71 129.131 44.1303 128.551 43.8404L70.7246 10.5068C70.1449 10.2169 69.4203 10.2169 68.9855 10.5068L11.159 43.841C10.5793 44.1308 10.2895 44.8554 10.2895 45.4351V112.247C10.2895 112.827 10.5793 113.551 11.159 113.841L26.9566 122.971C35.5075 127.319 40.8691 122.246 40.8691 117.174V51.2315C40.8691 50.3619 41.5942 49.4924 42.6087 49.4924H50.0002C50.8698 49.4924 51.7393 50.217 51.7393 51.2315V117.174C51.7393 128.623 45.5071 135.289 34.6374 135.289C31.3042 135.289 28.6956 135.289 21.3046 131.666L6.08672 122.971C2.31875 120.797 0 116.739 0 112.391V45.5801C0 41.2324 2.31875 37.1746 6.08672 35.0002L63.9133 1.52217C67.5363 -0.506738 72.4637 -0.506738 76.0867 1.52217L133.913 35.0002C137.681 37.174 140 41.2319 140 45.5801V112.392C140 116.739 137.681 120.797 133.913 122.971L76.0867 156.45C74.2027 157.32 72.0289 157.755 70 157.755M87.8259 111.812C62.4635 111.812 57.2463 100.218 57.2463 90.3631C57.2463 89.4936 57.9709 88.624 58.9854 88.624H66.5213C67.3909 88.624 68.116 89.2037 68.116 90.0733C69.2754 97.7541 72.6086 101.523 87.9709 101.523C100.145 101.523 105.363 98.7691 105.363 92.2476C105.363 88.4791 103.913 85.7256 84.9275 83.8411C69.1305 82.2469 59.2752 78.7688 59.2752 66.1606C59.2752 54.4208 69.1299 47.4646 85.6521 47.4646C104.203 47.4646 113.333 53.8411 114.493 67.7542C114.493 68.189 114.348 68.6237 114.058 69.0585C113.768 69.3483 113.333 69.6382 112.899 69.6382H105.363C104.637 69.6382 103.913 69.0585 103.768 68.3339C102.029 60.3632 97.5363 57.7546 85.6521 57.7546C72.3193 57.7546 70.7246 62.3921 70.7246 65.8702C70.7246 70.0735 72.6086 71.3772 90.5795 73.696C108.406 76.0147 116.811 79.3485 116.811 91.8123C116.666 104.566 106.232 111.812 87.8259 111.812Z" fill="#539E43"/>
</svg>
