<svg width="150" height="150" viewBox="0 0 150 150" fill="none" xmlns="http://www.w3.org/2000/svg">
<path d="M27.6656 127.505L17.1328 9.375H132.867L122.32 127.486L74.9297 140.625L27.6656 127.505Z" fill="#E44F26"/>
<path d="M75 130.585L113.297 119.967L122.306 19.0361H75V130.585Z" fill="#F1662A"/>
<path d="M75 62.8455H55.8281L54.5063 48.0096H75V33.5205H38.6719L39.0188 37.4111L42.5766 77.3346H75V62.8455ZM75 100.472L74.9344 100.491L58.8 96.1361L57.7688 84.5814H43.2234L45.2531 107.325L74.9344 115.566L75 115.547V100.472Z" fill="#EBEBEB"/>
<path d="M74.9482 62.8455V77.3346H92.7889L91.1107 96.1268L74.9482 100.486V115.561L104.653 107.325L104.869 104.878L108.272 66.7361L108.628 62.8455H74.9482ZM74.9482 33.5205V48.0096H109.945L110.236 44.7564L110.897 37.4111L111.244 33.5205H74.9482Z" fill="white"/>
</svg>
