    <svg width="140" height="140" viewBox="0 0 140 140" fill="none" xmlns="http://www.w3.org/2000/svg">
<g clip-path="url(#clip0_1_5002)">
<path d="M107.188 0H32.8125C14.6907 0 0 14.6907 0 32.8125V107.188C0 125.309 14.6907 140 32.8125 140H107.188C125.309 140 140 125.309 140 107.188V32.8125C140 14.6907 125.309 0 107.188 0Z" fill="#F4E47E"/>
<path d="M36.8111 116.994L47.5244 110.511C49.5916 114.175 51.4717 117.276 55.9818 117.276C60.3048 117.276 63.0305 115.585 63.0305 109.007V64.274H76.1872V109.193C76.1872 122.82 68.1995 129.022 56.5456 129.022C46.021 129.022 39.9119 123.572 36.8105 116.993M83.3332 115.585L94.0454 109.382C96.8656 113.988 100.531 117.371 107.015 117.371C112.466 117.371 115.942 114.645 115.942 110.886C115.942 106.375 112.371 104.777 106.357 102.147L103.068 100.736C93.5762 96.696 87.2795 91.621 87.2795 80.9077C87.2795 71.0399 94.7979 63.5215 106.545 63.5215C114.909 63.5215 120.924 66.4352 125.246 74.0472L115.003 80.6255C112.747 76.5847 110.305 74.9873 106.545 74.9873C102.692 74.9873 100.249 77.4307 100.249 80.6255C100.249 84.5723 102.692 86.1703 108.33 88.6143L111.619 90.0236C122.802 94.8169 129.099 99.7027 129.099 110.698C129.099 122.54 119.796 129.023 107.297 129.023C95.0801 129.023 87.1859 123.197 83.3332 115.585Z" fill="#3F403C"/>
</g>
<defs>
<clipPath id="clip0_1_5002">
<rect width="140" height="140" fill="white"/>
</clipPath>
</defs>
</svg>
