<svg width="140" height="140" viewBox="0 0 140 140" fill="none" xmlns="http://www.w3.org/2000/svg">
<g clip-path="url(#clip0_107_69)">
<path d="M107.188 0H32.8125C14.6907 0 0 14.6907 0 32.8125V107.188C0 125.309 14.6907 140 32.8125 140H107.188C125.309 140 140 125.309 140 107.188V32.8125C140 14.6907 125.309 0 107.188 0Z" fill="#007ACC"/>
<path d="M30.9593 70.4643L30.915 76.1978H49.1369V127.975H62.0268V76.1978H80.2486V70.5753C80.2486 67.4642 80.1825 64.8643 80.0933 64.7976C80.0266 64.709 68.9376 64.6642 55.4932 64.6866L31.0266 64.7533L30.9593 70.4643ZM112.967 64.5903C116.522 65.4796 119.233 67.0573 121.722 69.6347C123.011 71.0128 124.922 73.5241 125.078 74.124C125.122 74.3017 119.033 78.3907 115.344 80.6794C115.211 80.7685 114.677 80.1905 114.077 79.3018C112.277 76.6796 110.389 75.5459 107.499 75.3463C103.255 75.057 100.522 77.2795 100.544 80.9906C100.544 82.0794 100.7 82.7236 101.144 83.6128C102.077 85.546 103.811 86.7016 109.255 89.057C119.277 93.3685 123.566 96.2128 126.233 100.257C129.211 104.768 129.878 111.968 127.855 117.324C125.633 123.146 120.122 127.101 112.366 128.413C109.966 128.835 104.277 128.768 101.7 128.302C96.0774 127.302 90.7443 124.524 87.4554 120.88C86.1664 119.457 83.6551 115.746 83.811 115.479C83.8771 115.391 84.4552 115.035 85.0994 114.657C85.7218 114.302 88.0777 112.946 90.2997 111.657L94.3219 109.324L95.1663 110.568C96.3443 112.368 98.9217 114.835 100.478 115.657C104.944 118.013 111.078 117.679 114.1 114.968C115.389 113.79 115.922 112.568 115.922 110.768C115.922 109.146 115.722 108.435 114.877 107.213C113.788 105.657 111.567 104.346 105.255 101.613C98.033 98.5015 94.9218 96.5683 92.0775 93.5014C90.4331 91.7241 88.8772 88.8792 88.233 86.5014C87.6998 84.5239 87.5664 79.5682 87.9886 77.5682C89.4772 70.5907 94.7441 65.724 102.344 64.2792C104.811 63.8127 110.544 63.9904 112.967 64.5903Z" fill="white"/>
</g>
<defs>
<clipPath id="clip0_107_69">
<rect width="140" height="140" fill="white"/>
</clipPath>
</defs>
</svg>
